# xmcd
#
# Track frame offsets: 
#        150
#        14110
#        27997
#        40892
#        55895
#        70577
#        85105
#        105545
#        122912
#        137007
#        155757
#        172992
#        189290
#        205512
#        219642
#
# Disc length: 3137 seconds
#
# Revision: 2
# Processed by: cddbd v1.5.2PL0 Copyright (c) Steve Scherf et al.
# Submitted via: ExactAudioCopy v1.0b3
#
DISCID=cc0c3f0f
DTITLE=Various Artist - idol history #1
DYEAR=1999
DGENRE=Pop
TTITLE0=麻丘めぐみ - わたしの彼は左きき
TTITLE1=桜田淳子 - わたしの青い鳥
TTITLE2=リンリン・ランラン - 恋のインディアン人形
TTITLE3=岩崎宏美 - ロマンス
TTITLE4=ピンク・レディー - ペッパー警部
TTITLE5=ピンク・レディー/ - UFO
TTITLE6=井上望 - ルフラン
TTITLE7=石野真子 - 春ラ!ラ!ラ!
TTITLE8=松本伊代 - センチメンタル・ジャーニー
TTITLE9=小泉今日子 - なんてったってアイドル
TTITLE10=荻野目洋子 - ダンシング・ヒーロー
TTITLE11=水谷麻里 - 21世紀まで愛して
TTITLE12=長山洋子 - ビーナス
TTITLE13=酒井法子 - 夢冒険
TTITLE14=高橋由美子 - Fight!
EXTD=
EXTT0=
EXTT1=
EXTT2=
EXTT3=
EXTT4=
EXTT5=
EXTT6=
EXTT7=
EXTT8=
EXTT9=
EXTT10=
EXTT11=
EXTT12=
EXTT13=
EXTT14=
PLAYORDER=
